<!--?xml version="1.0" encoding="iso-8859-1"?-->
<!-- Generator: Adobe Illustrator 19.0.0, SVG Export Plug-In . SVG Version: 6.00 Build 0)  -->
<svg version="1.1" id="Capa_1" xmlns="http://www.w3.org/2000/svg" xmlns:xlink="http://www.w3.org/1999/xlink" x="0px" y="0px" viewBox="0 0 438.295 438.295" style="enable-background:new 0 0 438.295 438.295;" xml:space="preserve">
<g>
	<g>
		<path d="M310.708,422.295l0.24,0.16h-58c-18.468,0.133-33.547-14.731-33.679-33.199c-0.001-0.08-0.001-0.161-0.001-0.241v-56.8
			h9.68c4.418,0,8-3.582,8-8v-32h9.52c41.84,0,56.72-29.28,56.72-56.72v-140.8c0-9.146-7.414-16.56-16.56-16.56h-64.88v-25.44
			c0-4.418-3.582-8-8-8c-7.865,0-14.24-6.375-14.24-14.24c0-7.865,6.375-14.24,14.24-14.24c4.474-0.019,8.691,2.089,11.36,5.68
			c2.655,3.532,7.67,4.243,11.202,1.589c3.527-2.651,4.242-7.656,1.598-11.188c-9.912-13.442-28.843-16.304-42.285-6.392
			s-16.304,28.843-6.392,42.285c4.103,5.565,9.989,9.555,16.678,11.307v18.56h-69.76c-9.146,0-16.56,7.414-16.56,16.56v140.72
			c0,41.84,29.28,56.72,56.72,56.72h9.52v32c0,4.418,3.582,8,8,8h9.44v56.8c0,27.305,22.135,49.44,49.44,49.44h58
			c4.418,0,8-3.582,8-8S315.126,422.295,310.708,422.295z M176.308,276.135c-12.24-0.24-40.72-4.16-40.72-40.8V94.695
			c0-0.309,0.251-0.56,0.56-0.56h150.64c0.309,0,0.56,0.251,0.56,0.56v27.2h-32.8c-4.418,0-8,3.582-8,8c0,4.418,3.582,8,8,8h32.88
			v24h-32.88c-4.418,0-8,3.582-8,8s3.582,8,8,8h32.88v24h-32.88c-4.418,0-8,3.582-8,8s3.582,8,8,8h32.88v17.44
			c-0.012,2.408-0.173,4.812-0.48,7.2h-32.4c-4.418,0-8,3.582-8,8s3.582,8,8,8h27.28c-5.28,9.44-15.52,17.6-35.2,17.6H176.308z
			 M201.828,316.055v-24h19.36v24H201.828z"></path>
	</g>
</g>
<g>
</g>
<g>
</g>
<g>
</g>
<g>
</g>
<g>
</g>
<g>
</g>
<g>
</g>
<g>
</g>
<g>
</g>
<g>
</g>
<g>
</g>
<g>
</g>
<g>
</g>
<g>
</g>
<g>
</g>
</svg>
