<!--?xml version="1.0" encoding="iso-8859-1"?-->
<!-- Generator: Adobe Illustrator 19.0.0, SVG Export Plug-In . SVG Version: 6.00 Build 0)  -->
<svg version="1.1" id="Capa_1" xmlns="http://www.w3.org/2000/svg" xmlns:xlink="http://www.w3.org/1999/xlink" x="0px" y="0px" viewBox="0 0 399.525 399.525" style="enable-background:new 0 0 399.525 399.525;" xml:space="preserve">
<g>
	<g>
		<path d="M271.827,272.867l-142.16-142c-28.962-28.962-75.918-28.962-104.88,0c-28.962,28.962-28.962,75.918,0,104.88l142,142
			c28.962,29.006,75.954,29.042,104.96,0.08C300.753,348.866,300.789,301.873,271.827,272.867z M36.067,224.388
			c-10.945-10.88-17.081-25.687-17.04-41.12v0c0.006-32.121,26.05-58.155,58.171-58.149c15.419,0.003,30.205,6.128,41.109,17.029
			l65.52,65.36l-82.4,82.24L36.067,224.388z M260.387,366.468c-22.712,22.706-59.528,22.706-82.24,0l-65.36-65.36l82.24-82.32
			l65.36,65.36C283.102,306.887,283.102,343.728,260.387,366.468z"></path>
	</g>
</g>
<g>
	<g>
		<path d="M392.707,82.548C376.867,23.211,315.925-12.05,256.589,3.79c-59.336,15.84-94.597,76.782-78.758,136.118
			c15.839,59.336,76.782,94.597,136.118,78.758c0.146-0.039,0.292-0.078,0.438-0.118C373.429,202.438,408.407,141.7,392.707,82.548z
			 M260.627,19.668c47.751-12.978,97.463,12.888,114.24,59.44l-183.04,49.36C183.05,79.842,212.933,32.584,260.627,19.668z
			 M310.227,203.348v0.32c-47.836,12.902-97.558-13.108-114.24-59.76l183.04-49.44C387.849,143.121,357.956,190.429,310.227,203.348
			z"></path>
	</g>
</g>
<g>
</g>
<g>
</g>
<g>
</g>
<g>
</g>
<g>
</g>
<g>
</g>
<g>
</g>
<g>
</g>
<g>
</g>
<g>
</g>
<g>
</g>
<g>
</g>
<g>
</g>
<g>
</g>
<g>
</g>
</svg>
