<!--?xml version="1.0" encoding="iso-8859-1"?-->
<!-- Generator: Adobe Illustrator 19.0.0, SVG Export Plug-In . SVG Version: 6.00 Build 0)  -->
<svg version="1.1" id="Capa_1" xmlns="http://www.w3.org/2000/svg" xmlns:xlink="http://www.w3.org/1999/xlink" x="0px" y="0px" viewBox="0 0 433.92 433.92" style="enable-background:new 0 0 433.92 433.92;" xml:space="preserve">
<g>
	<g>
		<path d="M276.72,184.96h-27.76V157.2c0-6.318-5.122-11.44-11.44-11.44h-41.2c-6.287,0.044-11.36,5.153-11.36,11.44v27.76H157.2
			c-6.318,0-11.44,5.122-11.44,11.44v41.28c0.088,6.256,5.184,11.281,11.44,11.28h27.76v27.76c0,6.318,5.122,11.44,11.44,11.44
			h41.28c6.256-0.088,11.281-5.184,11.28-11.44v-27.76h27.68c6.318,0,11.44-5.122,11.44-11.44v-41.2
			C288.036,190.064,282.976,185.004,276.72,184.96z M272.16,232.96h-31.2c-4.418,0-8,3.582-8,8v31.2h-32v-31.2c0-4.418-3.582-8-8-8
			h-31.2v-32h31.2c4.418,0,8-3.582,8-8v-31.2h32v31.2c0,4.418,3.582,8,8,8h31.2V232.96z"></path>
	</g>
</g>
<g>
	<g>
		<path d="M367.44,23.44h-66.48v-6.48C300.96,7.593,293.367,0,284,0H158.88c-9.367,0-16.96,7.593-16.96,16.96v6.88H66.48
			c-9.367,0-16.96,7.593-16.96,16.96v376.16c0,9.367,7.593,16.96,16.96,16.96h300.96c9.367,0,16.96-7.593,16.96-16.96V40.4
			C384.4,31.033,376.807,23.44,367.44,23.44z M157.92,70.24V16.96c0-0.53,0.43-0.96,0.96-0.96H284c0.53,0,0.96,0.43,0.96,0.96v14.48
			v53.6c0,0.53-0.43,0.96-0.96,0.96H158.88c-0.53,0-0.96-0.43-0.96-0.96V70.24z M158.8,102.32H284c9.367,0,16.96-7.593,16.96-16.96
			v-6.88h28.72v301.04h-157.6v-69.04c0-4.418-3.582-8-8-8h-59.84v-224h37.6v6.88C141.84,94.727,149.433,102.32,158.8,102.32z
			 M156.08,318.48v48l-42.08-48H156.08z M368.4,416.96c0,0.53-0.43,0.96-0.96,0.96H66.48c-0.53,0-0.96-0.43-0.96-0.96V40.4
			c0-0.53,0.43-0.96,0.96-0.96h75.44v22.72h-45.6c-4.418,0-8,3.582-8,8v240c0.211,0.934,0.425,1.867,0.64,2.8
			c0.237,0.537,0.532,1.047,0.88,1.52c0.164,0.333,0.351,0.653,0.56,0.96l67.68,77.52c0.607,0.616,1.309,1.129,2.08,1.52h0.56
			c1.011,0.431,2.101,0.649,3.2,0.64h173.6c4.418,0,8-3.582,8-8V70.24c0-4.418-3.582-8-8-8h-36.56v-22.8h66.48
			c0.53,0,0.96,0.43,0.96,0.96L368.4,416.96z"></path>
	</g>
</g>
<g>
</g>
<g>
</g>
<g>
</g>
<g>
</g>
<g>
</g>
<g>
</g>
<g>
</g>
<g>
</g>
<g>
</g>
<g>
</g>
<g>
</g>
<g>
</g>
<g>
</g>
<g>
</g>
<g>
</g>
</svg>
