<!--?xml version="1.0" encoding="iso-8859-1"?-->
<!-- Generator: Adobe Illustrator 19.0.0, SVG Export Plug-In . SVG Version: 6.00 Build 0)  -->
<svg version="1.1" id="Capa_1" xmlns="http://www.w3.org/2000/svg" xmlns:xlink="http://www.w3.org/1999/xlink" x="0px" y="0px" viewBox="0 0 409.82 409.82" style="enable-background:new 0 0 409.82 409.82;" xml:space="preserve">
<g>
	<g>
		<path d="M360.14,90.819h-27.68v-27.68c0-6.318-5.122-11.44-11.44-11.44h-41.28c-6.318,0-11.44,5.122-11.44,11.44v27.68h-27.76
			c-6.318-0.088-11.511,4.961-11.599,11.279c-0.001,0.054-0.001,0.107-0.001,0.161v41.28c0,6.318,5.122,11.44,11.44,11.44h27.68
			v27.68c0,6.318,5.122,11.44,11.44,11.44h41.28c6.318,0,11.44-5.122,11.44-11.44v-27.68h27.92c6.318,0,11.44-5.122,11.44-11.44
			v-41.28C371.58,95.941,366.459,90.819,360.14,90.819z M324.46,138.819c-4.418,0-8,3.582-8,8v31.12h-32v-30.96c0-4.418-3.582-8-8-8
			h-31.52v-32h31.12c4.418,0,8-3.582,8-8v-31.28h32v31.12c0,4.418,3.582,8,8,8h31.12l0.4,32H324.46z"></path>
	</g>
</g>
<g>
	<g>
		<path d="M409.82,122.899c0.097-59.851-47.838-108.712-107.68-109.76c-48-25.44-105.68,6.08-122.24,16
			c-15.04-9.28-64-36.08-108.64-22.16c-26.32,9.04-46.48,30.16-59.12,63.44c-35.6,94.32,13.76,248,62.08,307.92
			c15.04,18.8,29.44,28.16,42.72,28.16c1.358,0.096,2.722,0.096,4.08,0c30-4.32,48.72-65.36,58.48-110.4
			c9.76,45.04,28.48,106.08,58.48,110.4c44.08,6.16,94.4-92.56,113.2-186.64C387.214,200.934,409.794,163.6,409.82,122.899
			L409.82,122.899z M240.62,390.419c-23.04-3.28-44.8-84.16-52.88-140.56c0-4.418-3.582-8-8-8s-8,3.582-8,8
			c-8,56-29.84,137.2-52.88,140.56c-8,1.36-20.16-6.8-32-22.08c-46.72-57.92-92.24-206.24-59.76-292.24
			c10.72-28.48,27.2-46.32,48.8-53.12c44.8-14.08,98.8,22.56,99.36,22.96c2.725,1.866,6.315,1.866,9.04,0c0.48,0,40-26.8,79.12-26
			c-56.736,20.838-85.838,83.724-65,140.461c20.077,54.665,79.447,84.034,135.08,66.819
			C312.86,319.299,265.74,394.019,240.62,390.419z M393.82,122.899c-0.044,51.6-41.84,93.432-93.44,93.52
			c-51.65,0.044-93.556-41.79-93.6-93.44c-0.044-51.65,41.79-93.556,93.44-93.6s93.556,41.79,93.6,93.44
			C393.82,122.846,393.82,122.872,393.82,122.899z"></path>
	</g>
</g>
<g>
</g>
<g>
</g>
<g>
</g>
<g>
</g>
<g>
</g>
<g>
</g>
<g>
</g>
<g>
</g>
<g>
</g>
<g>
</g>
<g>
</g>
<g>
</g>
<g>
</g>
<g>
</g>
<g>
</g>
</svg>
