<!--?xml version="1.0" encoding="UTF-8"?-->
<svg xmlns="http://www.w3.org/2000/svg" id="Layer_3" data-name="Layer 3" viewBox="0 0 64 64" width="512" height="512"><path d="M58,27a4.977,4.977,0,0,0-3.974,2H35V9.974a5,5,0,1,0-6,0V17.3a15.037,15.037,0,0,0-5.272,2.184l-4.8-4.8A4.983,4.983,0,1,0,14,19a5.1,5.1,0,0,0,.69-.067l4.8,4.8A15.04,15.04,0,0,0,17.3,29H9.974a5,5,0,1,0,0,6H17.3a15.04,15.04,0,0,0,2.184,5.272l-4.795,4.8A5.1,5.1,0,0,0,14,45a5,5,0,1,0,5,5,5.1,5.1,0,0,0-.067-.69l4.8-4.8A15.04,15.04,0,0,0,29,46.7v7.327a5,5,0,1,0,6,0V46.7a15.04,15.04,0,0,0,5.272-2.184l4.8,4.8A5.1,5.1,0,0,0,45,50a5,5,0,1,0,5-5,5.1,5.1,0,0,0-.69.067l-4.8-4.8A15.04,15.04,0,0,0,46.7,35h7.327A4.991,4.991,0,1,0,58,27ZM32,3a3,3,0,1,1-3,3A3,3,0,0,1,32,3ZM11.879,16.122a3,3,0,1,1,4.242,0A3.074,3.074,0,0,1,11.879,16.122ZM6,35a3,3,0,1,1,3-3A3,3,0,0,1,6,35ZM16.121,52.121a3.072,3.072,0,0,1-4.242,0,3,3,0,1,1,4.242,0ZM32,61a3,3,0,1,1,3-3A3,3,0,0,1,32,61ZM52.121,47.879a3,3,0,0,1,0,4.242,3.072,3.072,0,0,1-4.242,0,3,3,0,1,1,4.242-4.242ZM45.858,33a1,1,0,0,0-.99.858,12.974,12.974,0,0,1-2.456,5.927,1,1,0,0,0,.094,1.307l4.737,4.737a5.028,5.028,0,0,0-1.414,1.414l-4.737-4.737a1,1,0,0,0-1.307-.094,12.974,12.974,0,0,1-5.927,2.456,1,1,0,0,0-.858.99V53.1a5,5,0,0,0-2,0V45.858a1,1,0,0,0-.858-.99,12.974,12.974,0,0,1-5.927-2.456,1,1,0,0,0-1.307.094l-4.737,4.737a5.028,5.028,0,0,0-1.414-1.414l4.737-4.737a1,1,0,0,0,.094-1.307,12.974,12.974,0,0,1-2.456-5.927,1,1,0,0,0-.99-.858H10.9a5,5,0,0,0,0-2h7.243a1,1,0,0,0,.99-.858,12.984,12.984,0,0,1,2.456-5.927,1,1,0,0,0-.094-1.306l-4.737-4.738a4.994,4.994,0,0,0,1.414-1.414l4.737,4.737a1,1,0,0,0,1.307.093,12.985,12.985,0,0,1,5.63-2.409l.307-.048A1,1,0,0,0,31,18.142V10.9a5,5,0,0,0,2,0V30a1,1,0,0,0,1,1H53.1a5,5,0,0,0,0,2ZM58,35a3,3,0,1,1,3-3A3,3,0,0,1,58,35Z"></path><path d="M62,9H55V2a1,1,0,0,0-1-1H48a1,1,0,0,0-1,1V9H40a1,1,0,0,0-1,1v6a1,1,0,0,0,1,1h7v7a1,1,0,0,0,1,1h6a1,1,0,0,0,1-1V17h7a1,1,0,0,0,1-1V10A1,1,0,0,0,62,9Zm-1,6H54a1,1,0,0,0-1,1v7H49V16a1,1,0,0,0-1-1H41V11h7a1,1,0,0,0,1-1V3h4v7a1,1,0,0,0,1,1h7Z"></path></svg>
