<svg width="32" height="32" viewBox="0 0 32 32" fill="none" xmlns="http://www.w3.org/2000/svg">
<g clip-path="url(#clip0_1_1444)">
<path fill-rule="evenodd" clip-rule="evenodd" d="M29.3723 12.6498L26.7827 13.9705V23.3448C25.4788 25.9875 19.5241 27.2292 15.7769 27.2292C11.6659 27.2292 6.20964 25.9422 4.77112 23.3448V13.2506L0.886719 10.7956L16.4243 3.92285L30.6671 11.9907V23.3448L31.9619 27.2292H28.0775L29.3723 23.3448V12.6498ZM6.06591 14.0676V22.9668C7.30633 24.6241 11.5261 25.9344 15.7769 25.9344C19.5241 25.9344 24.3083 24.6927 25.4879 22.9965V14.6295L15.2292 19.8592L6.06591 14.0676ZM3.6304 10.9976L15.2978 18.3702L27.9338 11.9299L16.3531 5.37044L3.6304 10.9976Z" fill="#D82535"/>
</g>
<defs>
<clipPath id="clip0_1_1444">
<rect width="31.0752" height="31.0752" fill="white" transform="translate(0.886719 0.0390625)"/>
</clipPath>
</defs>
</svg>
