<svg id="Layer_1" enable-background="new 0 0 512 512" height="512" viewBox="0 0 512 512" width="512" xmlns="http://www.w3.org/2000/svg"><path d="m256.085 65.49c-101.308 0-183.726 82.419-183.726 183.726s82.419 183.726 183.726 183.726 183.731-82.419 183.731-183.726-82.423-183.726-183.731-183.726zm0 353.371c-93.543 0-169.645-76.102-169.645-169.645s76.102-169.645 169.645-169.645c93.548 0 169.65 76.102 169.65 169.645s-76.103 169.645-169.65 169.645zm243.829-203.259c-16.577-121.582-120.355-212.578-243.825-212.578-123.454 0-227.218 90.968-243.825 212.522-9.573 2.143-16.764 10.677-16.764 20.886v25.577c0 10.205 7.187 18.736 16.756 20.88 14.889 108.311 102.073 195.419 210.428 210.186 2.457 9.126 10.721 15.901 20.613 15.901h25.581c11.817 0 21.429-9.616 21.429-21.433s-9.612-21.433-21.429-21.433h-25.581c-8.78 0-16.322 5.319-19.632 12.894-101.645-14.28-183.335-96.09-197.432-197.778 7.152-3.477 12.133-10.746 12.133-19.217v-25.577c0-8.467-4.978-15.738-12.125-19.217 15.76-114.473 113.537-200.11 229.848-200.11 116.278 0 214.036 85.595 229.829 200.023-7.235 3.447-12.284 10.772-12.284 19.304v25.577c0 11.817 9.616 21.429 21.433 21.429s21.433-9.612 21.433-21.429v-25.577c0-10.143-7.105-18.619-16.586-20.83zm-256.618 264.589h25.581c4.052 0 7.348 3.3 7.348 7.352s-3.296 7.352-7.348 7.352h-25.581c-4.052 0-7.348-3.3-7.348-7.352s3.296-7.352 7.348-7.352zm-233.715-243.759c0-4.052 3.3-7.352 7.352-7.352s7.352 3.3 7.352 7.352v25.577c0 4.052-3.3 7.348-7.352 7.348s-7.352-3.296-7.352-7.348zm492.838 25.577c0 4.052-3.3 7.348-7.352 7.348s-7.352-3.296-7.352-7.348v-25.577c0-4.052 3.3-7.352 7.352-7.352s7.352 3.3 7.352 7.352zm-175.352 18.39c-3.898-11.984-11.819-21.801-22.217-28.034 5.638-8.912 8.952-19.432 8.952-30.733 0-31.824-25.888-57.717-57.713-57.717s-57.717 25.893-57.717 57.717c0 11.301 3.314 21.822 8.952 30.732-10.403 6.235-18.325 16.05-22.217 28.035l-10.891 33.525c-1.568 4.845-.752 9.988 2.237 14.108 2.998 4.125 7.641 6.49 12.738 6.49h133.792c5.097 0 9.74-2.365 12.738-6.49 2.989-4.121 3.804-9.264 2.237-14.122zm-70.978-102.403c24.06 0 43.632 19.577 43.632 43.636 0 24.055-19.572 43.627-43.632 43.627s-43.636-19.572-43.636-43.627c0-24.06 19.577-43.636 43.636-43.636zm68.237 141.758c-.367.509-.72.688-1.343.688h-133.792c-.623 0-.976-.179-1.343-.688-.371-.504-.431-.898-.238-1.49l10.891-33.516c3.047-9.392 9.447-16.978 17.844-21.377 10.361 9.867 24.341 15.968 39.745 15.968 15.403 0 29.381-6.101 39.74-15.967 8.395 4.397 14.794 11.986 17.844 21.38l10.891 33.497c.192.607.132 1.001-.239 1.505z"></path></svg>